<?xml version="1.0" encoding="UTF-8" standalone="no"?>
<svg id="svg26811" xmlns:rdf="http://www.w3.org/1999/02/22-rdf-syntax-ns#" xmlns="http://www.w3.org/2000/svg" height="330.47mm" width="87.135mm" version="1.1" xmlns:cc="http://creativecommons.org/ns#" xmlns:dc="http://purl.org/dc/elements/1.1/" viewBox="0 0 308.74569 1170.9411">
<g id="layer1" transform="translate(1330.2 127.39)">
<g id="g27389">
<path id="path10240" d="m-1193.8 277.1c-0.8609 21.554-2.3734 69.035-3.6856 83.965-2.7193 30.793-4.6924 53.807 0.9141 86.354 3.1077 18.079 8.5237 39.078 17.522 66.07 1.8898 5.6589 3.5907 11.138 5.1758 16.514 25.901 87.687 12.862 138.9-16.588 191.43l9.166 5.1348c32.505-57.986 45.923-114.28 12.631-215.05-0.1586-0.46196-0.2754-0.88179-0.42-1.3438-12.326-36.977-17.86-62.059-19.781-83.98-1.9001-21.68-0.2749-40.274 1.8379-64.201 1.3332-15.16 2.8666-62.925 3.7383-84.889zm3.3105 444.33c-4.0106 7.1498-9.7015 15.907-16.242 25.902-28.541 44.628-72.097 124.68-66.555 182.35 8.0215 43.652 25.44 69.741 41.66 86.906 7.339 7.7692 14.436 13.712 20.305 18.625 3.6746 3.0762 6.9187 5.7848 9.4805 8.336l7.4238-7.4219c-2.74-2.7402-6.2164-5.6596-10.164-8.9668-8.9133-7.4543-19.968-16.778-30.32-30.752-11.57-15.633-22.269-37.103-28.064-68.621-2.0815-11.613 6.3448-57.716 15.062-80.279 16.144-38.688 28.75-61.263 46.52-92.007 7.4962-11.412 15.467-20.766 20.044-28.934z" fill="#abb7b7"/>
<path id="path11236" d="m-1158.3 307.1s-9.7118-6.7298-24.431-18.594c-1.9631-1.5853-4.0106-3.2547-6.1416-5.0185-1.4909 1.3124-2.9295 2.5617-4.3363 3.7691-11.864 10.247-20.693 17.187-24.148 19.843h23.581 10.499 24.977z" fill="#ff8b63"/>
<path id="path11240" d="m-1188.9 283.5c-1.3961-1.1549-2.803-2.3308-4.2625-3.5591-50.237-42.269-137.08-128.4-137.08-218.9 0-125.99 78.742-185.71 141.74-188.33 77.377-3.2232 150.92 71.529 143.05 188.33-5.8374 86.564-88.044 172.73-137.18 216.9-2.1521 1.9318-4.2416 3.7901-6.2574 5.5644" fill="#ff8b63"/>
<path id="path11244" d="m-1206-104.54c-20.998 0-88.37 30.625-88.37 131.24 0 79.928 77.871 164.49 91.866 188.98 0 0-65.618-108.49-65.618-177.61 0-72.611 41.124-127.73 62.122-142.61" fill="#ffe09b"/>
<path id="path11256" d="m-1022 420c-0.3779 0.33596-0.5776 0.79792-0.8399 1.2284 0.3687-0.59843 0.8189-1.1234 1.4069-1.5328-0.182 0.12599-0.3966 0.15725-0.566 0.30423" fill="#9a62a8"/>
</g>
</g>
</svg>
